<svg xmlns="http://www.w3.org/2000/svg" width="48" height="48" viewBox="0 0 48 48"><path fill="#00ACC1" d="M42,6H6C4.896,6,4,6.896,4,8v12c0,1.104,0.896,2,2,2h36c1.104,0,2-0.896,2-2V8C44,6.896,43.104,6,42,6L42,6z"/><path fill="#4DD0E1" d="M6 8H42V20H6z"/><path fill="#FFF" d="M20 11A3 3 0 1 0 20 17 3 3 0 1 0 20 11zM12 11A3 3 0 1 0 12 17 3 3 0 1 0 12 11zM36 11A3 3 0 1 0 36 17 3 3 0 1 0 36 11zM28 11A3 3 0 1 0 28 17 3 3 0 1 0 28 11z"/><g><path fill="#0097A7" d="M26.571 29L22 33 22 25z"/><path fill="#0097A7" d="M18,35c0,2.761,2.238,5,5,5s5-2.239,5-5c0-0.79-0.199-1.526-0.525-2.19l1.479-1.479C29.613,32.399,30,33.653,30,35c0,3.866-3.134,7-7,7s-7-3.134-7-7s3.134-7,7-7v2C20.238,30,18,32.237,18,35z"/></g></svg>