<?xml version="1.0" encoding="UTF-8"?>
<svg enable-background="new 0 0 256 256" version="1.1" viewBox="0 0 256 256" xml:space="preserve" xmlns="http://www.w3.org/2000/svg">
	<polyline points="141.94 65.809 141.94 152.1 134.5 152.22 133.94 67.809" fill="#EA3434"/>
				<path d="m222 78.475v114s-21.75-7-48-7c-30 0-46 7-46 7s-21.75-7-48-7c-30 0-46 7-46 7v-114s2.71-1.19 8-2.59v105.59s14.72-5 42.09-5c23.94 0 43.85 7 43.85 7s14.75-7 42.12-7c23.94 0 43.94 5 43.94 5v-105.15c5.05 1.2 8 2.15 8 2.15z" fill="#04B27C"/>
			<path d="m222.61 76.572c-0.11-0.035-2.491-0.797-6.613-1.818v-6.696l-1.338-0.469c-0.829-0.291-20.567-7.113-44.572-7.113-24.375 0-38.749 5.419-42.133 6.858-3.82-1.241-22.303-6.858-43.836-6.858-27.504 0-42.359 6.899-42.978 7.193l-1.143 0.542v6.149c-4.401 1.241-6.699 2.238-6.804 2.285l-1.196 0.524v115.31l2e-3 3.049 2.797-1.216c0.157-0.068 16.053-6.833 45.201-6.833 25.606 0 47.173 6.835 47.388 6.904l0.72 0.23 0.691-0.301c0.157-0.068 16.053-6.833 45.201-6.833 25.606 0 47.173 6.835 47.388 6.904l2.612 0.84v-118.2l-1.387-0.446zm-92.614-5.747c3.814-1.525 17.657-6.349 40.091-6.349 19.823 0 37.084 4.938 41.91 6.452v108.04c-6.138-1.319-22.898-4.496-41.94-4.496-20.944 0-34.545 3.999-40.119 6.037l0.058-109.69zm-85.999-0.022c3.921-1.552 17.802-6.328 40.12-6.328 19.865 0 37.018 4.903 41.879 6.431l-0.058 109.82c-6.238-1.897-22.659-6.256-41.852-6.256-21.09 0-34.678 2.905-40.09 4.336v-108.01zm176 118.99c-6.58-1.848-24.708-6.322-46-6.322-26.939 0-42.634 5.517-46.093 6.877-4.011-1.217-23.958-6.877-47.907-6.877-23.269 0-38.148 4.116-44 6.114v-109.75c0.869-0.321 2.215-0.785 4-1.315v102.95l1e-3 2.786 2.64-0.892c0.145-0.049 14.799-4.895 41.448-4.895 23.294 0 42.991 6.818 43.188 6.887l0.776 0.271 0.741-0.35c0.145-0.068 14.751-6.808 41.265-6.808 23.396 0 43.257 4.891 43.455 4.94l2.485 0.62v-105.16c1.721 0.439 3.082 0.817 4 1.084v109.84z"/>
			<path d="m84.12 90.475c7.676 0 15.763 0.73 24.037 2.17l0.686-3.94c-8.5-1.48-16.818-2.23-24.723-2.23-9.283 0-18.121 0.792-26.267 2.355l0.754 3.929c7.898-1.515 16.482-2.284 25.513-2.284z"/>
			<path d="m84.12 100.48c4.669 0 9.492 0.269 14.333 0.798l0.435-3.977c-4.985-0.545-9.953-0.822-14.768-0.822-9.283 0-18.121 0.792-26.267 2.355l0.754 3.929c7.898-1.514 16.482-2.283 25.513-2.283z"/>
			<path d="m84.12 110.48c7.676 0 15.763 0.73 24.037 2.17l0.686-3.94c-8.5-1.48-16.818-2.23-24.723-2.23-9.283 0-18.121 0.792-26.267 2.355l0.754 3.929c7.898-1.515 16.482-2.284 25.513-2.284z"/>
			<path d="m84.12 120.48c4.669 0 9.492 0.269 14.333 0.798l0.435-3.977c-4.985-0.545-9.953-0.822-14.768-0.822-9.283 0-18.121 0.792-26.267 2.355l0.754 3.929c7.898-1.514 16.482-2.283 25.513-2.283z"/>
			<path d="m108.16 132.65l0.686-3.94c-8.5-1.48-16.818-2.23-24.723-2.23-9.283 0-18.121 0.792-26.267 2.355l0.754 3.929c7.898-1.516 16.482-2.284 25.513-2.284 7.676-1e-3 15.763 0.73 24.037 2.17z"/>
			<path d="m171.82 90.475c7.675 0 15.763 0.73 24.038 2.17l0.686-3.94c-8.5-1.48-16.818-2.23-24.723-2.23-9.283 0-18.12 0.792-26.267 2.355l0.754 3.929c7.898-1.515 16.482-2.284 25.512-2.284z"/>
			<path d="m171.82 100.48c4.669 0 9.492 0.269 14.333 0.798l0.435-3.977c-4.985-0.545-9.954-0.822-14.768-0.822-9.283 0-18.12 0.792-26.267 2.355l0.754 3.929c7.899-1.514 16.483-2.283 25.513-2.283z"/>
			<path d="m195.86 112.65l0.686-3.94c-8.5-1.48-16.818-2.23-24.723-2.23-9.283 0-18.12 0.792-26.267 2.355l0.754 3.929c7.898-1.516 16.482-2.284 25.513-2.284 7.675-1e-3 15.763 0.73 24.037 2.17z"/>
	<polygon points="144 158.48 137.94 153.48 132 158.48 132 67 136 67 136 150.48 138 148.48 140 150.48 140 65 144 65"/>
</svg>
